<svg width="101" height="25" viewBox="0 0 101 25" fill="none" xmlns="http://www.w3.org/2000/svg">
<path d="M89.8683 8.18625C90.4381 8.18625 90.9071 7.88999 90.9705 7.50724L91.533 1.14508C91.533 0.516239 90.7963 0 89.8701 0C88.9448 0 88.2088 0.516237 88.2088 1.14519L88.771 7.50724C88.8329 7.88988 89.3019 8.18625 89.8702 8.18625H89.8683ZM86.4298 10.1735C86.7156 9.6806 86.694 9.12667 86.3928 8.88059L81.1634 5.21232C80.6197 4.89745 79.8045 5.27645 79.3418 6.07885C78.8776 6.88022 78.9599 7.77524 79.5021 8.09022L85.2925 10.7863C85.6545 10.9205 86.148 10.6622 86.4316 10.1697L86.4298 10.1735ZM93.3099 10.17C93.5952 10.6626 94.0863 10.9209 94.4486 10.7866L100.239 8.09057C100.785 7.77569 100.862 6.88056 100.402 6.07919C99.9373 5.27759 99.1206 4.89779 98.5784 5.21266L93.3487 8.88093C93.0497 9.12667 93.0275 9.68105 93.3117 10.1738L93.3099 10.17ZM89.8683 16.1336C90.4381 16.1336 90.9071 16.4273 90.9705 16.8104L91.533 23.1717C91.533 23.8025 90.7963 24.3175 89.8701 24.3175C88.9448 24.3175 88.2088 23.8025 88.2088 23.1717L88.771 16.8104C88.8329 16.4273 89.3019 16.1336 89.8702 16.1336H89.8683ZM93.3099 14.1459C93.5952 13.652 94.0863 13.396 94.4486 13.5317L100.239 16.226C100.785 16.5412 100.862 17.4371 100.402 18.2392C99.9373 19.0381 99.1206 19.419 98.5784 19.1045L93.3487 15.4397C93.0497 15.192 93.0275 14.6373 93.3117 14.1449H93.3094M86.4298 14.1452C86.7156 14.6373 86.694 15.192 86.3928 15.4401L81.1634 19.1049C80.6197 19.4193 79.8045 19.0385 79.3418 18.2395C78.8776 17.4374 78.9599 16.5415 79.5021 16.2263L85.2925 13.5321C85.6545 13.3963 86.148 13.6524 86.4316 14.1464H86.4298" fill="white"/>
<path d="M56.8817 15.4281C56.8817 15.6233 56.8644 15.8247 56.8109 16.0015C56.5891 16.736 55.8286 17.3572 54.8772 17.3572C54.0839 17.3572 53.4538 16.9065 53.4538 15.9548C53.4538 14.4981 55.0571 14.0958 56.8822 14.1059L56.8817 15.428V15.4281ZM59.7444 12.8896C59.7444 10.4876 58.7181 8.37409 55.2502 8.37409C53.47 8.37409 52.0572 8.87409 51.286 9.31973L51.8508 11.2507C52.5556 10.8058 53.6789 10.4375 54.7419 10.4375C56.5009 10.4326 56.789 11.4336 56.789 12.0742V12.2259C52.9546 12.2202 50.5307 13.5479 50.5307 16.2526C50.5307 17.9053 51.7652 19.4532 53.9112 19.4532C55.2298 19.4532 56.3343 18.9269 56.9952 18.0829H57.0605C57.0605 18.0829 57.4979 19.9152 59.9123 19.2142C59.7863 18.4522 59.7449 17.6388 59.7449 16.6607L59.7445 12.8896M0 5.10299C0 5.10299 2.50571 15.3703 2.90582 17.0366C3.37257 18.9816 4.21379 19.6976 6.63799 19.2142L8.20248 12.8488C8.5992 11.267 8.86469 10.1391 9.12031 8.53164H9.16481C9.34427 10.1562 9.59887 11.2719 9.92532 12.8541C9.92532 12.8541 10.5619 15.744 10.8884 17.2614C11.2153 18.7783 12.1252 19.735 14.5001 19.2142L18.2281 5.10254H15.219L13.9457 11.204C13.6033 12.9793 13.293 14.368 13.0535 15.9918H13.0109C12.7933 14.3823 12.5163 13.0502 12.1686 11.3201L10.8439 5.10254H7.70815L6.29043 11.1633C5.88917 13.0056 5.51289 14.4925 5.27452 16.0623H5.23116C4.98644 14.5842 4.66067 12.7146 4.30811 10.9321C4.30811 10.9321 3.46644 6.59688 3.17041 5.10254L0 5.10299ZM23.9202 15.4281C23.9202 15.6233 23.9028 15.8247 23.8485 16.0015C23.6272 16.736 22.8662 17.3572 21.9148 17.3572C21.1214 17.3572 20.4922 16.9065 20.4922 15.9548C20.4922 14.4981 22.095 14.0958 23.9205 14.1059L23.9202 15.428V15.4281ZM26.7825 12.8896C26.7825 10.4876 25.7562 8.37409 22.2889 8.37409C20.5083 8.37409 19.0943 8.87409 18.3236 9.31973L18.8877 11.2507C19.5924 10.8058 20.7157 10.4375 21.779 10.4375C23.5393 10.4326 23.8274 11.4336 23.8274 12.0742V12.2259C19.9914 12.2202 17.5687 13.5479 17.5687 16.2526C17.5687 17.9053 18.8025 19.4532 20.9469 19.4532C22.2674 19.4532 23.3711 18.9269 24.0329 18.0829H24.0973C24.0973 18.0829 24.5359 19.9152 26.9498 19.2142C26.8236 18.4522 26.7825 17.6388 26.7825 16.6607V12.8896ZM31.5596 16.2187V5.10299H28.6935V19.2146H31.5596V16.2187ZM69.0534 5.10299V15.5129C69.0534 16.9488 69.3241 17.9537 69.9013 18.5687C70.4071 19.1063 71.2381 19.4544 72.2347 19.4544C73.0824 19.4544 73.9158 19.2926 74.3091 19.1468L74.2721 16.9077C73.9794 16.9792 73.6435 17.0371 73.1835 17.0371C72.2069 17.0371 71.8803 16.4114 71.8803 15.123V11.14H74.3762V8.43958H71.8803V5.10299H69.0534ZM61.6556 8.61348V19.2146H64.6121V13.7866C64.6121 13.4932 64.6298 13.2376 64.6763 13.0038C64.895 11.8662 65.7645 11.14 67.0134 11.14C67.3558 11.14 67.6008 11.1772 67.8663 11.2149V8.43958C67.6435 8.3952 67.4923 8.37443 67.2151 8.37443C66.1118 8.37443 64.8565 9.08636 64.3297 10.6135H64.2498V8.61348H61.6556ZM33.5665 8.61348V19.2146H36.447V12.9981C36.447 12.7064 36.4813 12.3979 36.5823 12.1304C36.821 11.5045 37.4035 10.7715 38.333 10.7715C39.4959 10.7715 40.039 11.7542 40.039 13.1723V19.2138H42.9172V12.9216C42.9172 12.6433 42.9552 12.3077 43.0375 12.0623C43.2738 11.3499 43.9013 10.7707 44.7656 10.7707C45.9439 10.7707 46.5095 11.7361 46.5095 13.4054V19.2135H49.3897V12.9694C49.3897 9.67683 47.7177 8.37341 45.8301 8.37341C44.9949 8.37341 44.3349 8.58261 43.7381 8.94833C43.237 9.25707 42.7875 9.69454 42.3953 10.2696H42.3527C41.8976 9.12711 40.8266 8.37397 39.431 8.37397C37.6381 8.37397 36.8323 9.28284 36.3436 10.0536H36.3007V8.61314H33.5665" fill="white"/>
</svg>
