<svg width="101" height="29" viewBox="0 0 101 29" fill="none" xmlns="http://www.w3.org/2000/svg">
<path d="M5.17042 0.0983005C3.11423 0.945012 0.853806 3.33708 0.139888 6.33963C-0.764233 10.144 2.99824 11.7527 3.30683 11.2253C3.67005 10.6054 2.63264 10.3958 2.4191 8.42197C2.14311 5.87254 3.34791 3.02384 4.86418 1.77392C5.14603 1.54169 5.13262 1.86491 5.13262 2.46276C5.13262 3.53186 5.07257 13.1293 5.07257 15.1322C5.07257 17.8425 4.95878 18.6984 4.75441 19.5441C4.54733 20.4011 4.21443 20.9802 4.46669 21.2033C4.74852 21.4528 5.95186 20.8593 6.64848 19.9028C7.48384 18.7556 7.77626 17.378 7.82876 15.8819C7.89217 14.0783 7.88946 11.2165 7.89217 9.58413C7.8947 8.087 7.9178 3.70309 7.86549 1.06765C7.85267 0.42123 6.03032 -0.256961 5.17032 0.0975141M78.1853 12.7823C78.1191 14.1913 77.802 15.2926 77.4085 16.0694C76.6468 17.5733 75.0661 18.0403 74.395 15.8784C74.0292 14.6999 74.0121 12.7318 74.2751 11.0873C74.5427 9.412 75.2901 8.14677 76.5277 8.26088C77.7484 8.37367 78.3198 9.92103 78.1853 12.7822V12.7823ZM57.6067 21.5241C57.5901 23.8653 57.2156 25.918 56.4124 26.5142C55.2732 27.3596 53.7421 26.7255 54.0591 25.0171C54.3397 23.5053 55.6664 21.9615 57.6099 20.0751C57.6099 20.0751 57.614 20.5053 57.6068 21.5241H57.6067ZM57.2956 12.7686C57.2259 14.052 56.8877 15.3412 56.5188 16.0696C55.7572 17.5735 54.165 18.0437 53.5052 15.8786C53.0541 14.3993 53.1621 12.4848 53.3853 11.2784C53.675 9.71325 54.377 8.26121 55.638 8.26121C56.8639 8.26121 57.4684 9.58434 57.2956 12.7687V12.7686ZM45.3743 12.749C45.2996 14.1082 45.0301 15.2444 44.5975 16.0696C43.815 17.5632 42.2668 18.0368 41.584 15.8786C41.0917 14.3223 41.2593 12.2003 41.4641 11.054C41.7679 9.35295 42.5288 8.14693 43.7167 8.26121C44.9369 8.37848 45.5301 9.92119 45.3743 12.7491V12.749ZM100.007 14.3366C99.7084 14.3366 99.5723 14.639 99.4596 15.1482C99.069 16.9184 98.6585 17.3182 98.129 17.3182C97.5376 17.3182 97.0061 16.4416 96.8695 14.6869C96.7621 13.3071 96.7793 10.7669 96.9167 8.2401C96.9447 7.72093 96.7991 7.20726 95.3836 6.7014C94.7746 6.48381 93.8892 6.16343 93.4484 7.21025C92.2028 10.1677 91.7155 12.5157 91.6009 13.4696C91.5949 13.5189 91.5334 13.529 91.5226 13.4137C91.4495 12.6497 91.2862 11.2615 91.2659 8.34474C91.262 7.77566 91.1394 7.29126 90.5009 6.89469C90.0866 6.63736 88.8286 6.18223 88.3756 6.72368C87.9831 7.1665 87.5286 8.35821 87.0563 9.77083C86.6725 10.919 86.4051 11.6956 86.4051 11.6956C86.4051 11.6956 86.4102 8.59775 86.4148 7.42267C86.4168 6.97937 86.1077 6.83165 86.0145 6.80487C85.595 6.68509 84.7685 6.48498 84.4176 6.48498C83.9847 6.48498 83.8787 6.72302 83.8787 7.06986C83.8787 7.11527 83.8104 11.1485 83.8104 13.9688C83.8104 14.0913 83.8104 14.2249 83.8117 14.3669C83.5722 15.6631 82.7958 17.4227 81.9513 17.4227C81.1058 17.4227 80.707 16.6871 80.707 13.3249C80.707 11.3635 80.7668 10.5106 80.7962 9.09204C80.8133 8.27494 80.8463 7.64747 80.8444 7.50508C80.8382 7.06842 80.0707 6.84834 79.7135 6.76701C79.3547 6.68499 79.0429 6.65322 78.7994 6.66686C78.4548 6.68599 78.211 6.9084 78.211 7.21431C78.211 7.37833 78.2129 7.69022 78.2129 7.69022C77.769 7.00405 77.0551 6.52646 76.5801 6.38806C75.3008 6.01429 73.9658 6.34547 72.9588 7.73165C72.1585 8.83304 71.6761 10.0805 71.4862 11.8727C71.3474 13.1829 71.3927 14.5116 71.6394 15.6353C71.3413 16.9032 70.7878 17.4227 70.1818 17.4227C69.302 17.4227 68.6642 16.01 68.7383 13.5668C68.7871 11.9598 69.114 10.832 69.4713 9.20049C69.6236 8.50499 69.4999 8.14086 69.1894 7.79186C68.9046 7.47181 68.2979 7.3083 67.4258 7.50941C66.8045 7.6528 65.9163 7.807 65.1036 7.92544C65.1036 7.92544 65.1526 7.73298 65.1929 7.39364C65.4042 5.61405 63.4385 5.75844 62.8114 6.32684C62.437 6.66619 62.1822 7.06643 62.0855 7.78605C61.9321 8.92802 62.8788 9.46665 62.8788 9.46665C62.5682 10.8655 61.8068 12.6928 61.0207 14.0139C60.5996 14.7217 60.2775 15.2462 59.8617 15.8038C59.8602 15.5962 59.859 15.3886 59.8583 15.1819C59.8488 12.2411 59.8885 9.92655 59.9061 9.09231C59.9232 8.27523 59.9565 7.66439 59.9547 7.522C59.95 7.20262 59.7604 7.08201 59.3661 6.9293C59.0174 6.79424 58.6051 6.70075 58.1775 6.66814C57.6377 6.62672 57.3126 6.90835 57.321 7.24137C57.3227 7.30425 57.3227 7.69035 57.3227 7.69035C56.8788 7.00416 56.1649 6.52659 55.6899 6.38818C54.4105 6.01456 53.0756 6.34576 52.0686 7.73176C51.2685 8.83315 50.7444 10.3787 50.596 11.8592C50.4577 13.239 50.4832 14.4116 50.6717 15.3994C50.4683 16.3885 49.8834 17.4228 49.2221 17.4228C48.3766 17.4228 47.8956 16.6872 47.8956 13.325C47.8956 11.3636 47.9554 10.5108 47.9848 9.09231C48.0019 8.27523 48.0349 7.6476 48.033 7.50537C48.0268 7.06871 47.2593 6.84863 46.9021 6.76712C46.5284 6.68212 46.2058 6.65085 45.9581 6.6688C45.6312 6.69276 45.4014 6.98071 45.4014 7.19547V7.69035C44.9576 7.00416 44.2437 6.52659 43.7687 6.38818C42.4893 6.01456 41.1618 6.35109 40.1474 7.73176C39.4859 8.63203 38.9504 9.63012 38.6747 11.8395C38.5951 12.478 38.5599 13.0759 38.5645 13.6348C38.3007 15.2218 37.1357 17.0509 36.1826 17.0509C35.625 17.0509 35.0939 15.9868 35.0939 13.7189C35.0939 10.6981 35.2839 6.397 35.316 5.98247C35.316 5.98247 36.5201 5.96234 36.7533 5.95967C37.354 5.95318 37.8979 5.96715 38.6979 5.9269C39.0992 5.90677 39.4857 4.49016 39.0716 4.31484C38.8839 4.23548 37.5574 4.16596 37.0315 4.15497C36.5893 4.14512 35.3583 4.0555 35.3583 4.0555C35.3583 4.0555 35.4687 1.20064 35.4944 0.899066C35.5163 0.647713 35.1857 0.518299 34.9961 0.439773C34.5352 0.247979 34.1228 0.15615 33.6339 0.0570091C32.9585 -0.0800539 32.6521 0.0540146 32.5923 0.61477C32.5022 1.46581 32.4555 3.95851 32.4555 3.95851C31.9599 3.95851 30.2669 3.8632 29.7711 3.8632C29.3105 3.8632 28.8134 5.81196 29.4502 5.83591C30.1829 5.86386 31.4597 5.88798 32.3062 5.9131C32.3062 5.9131 32.2685 10.285 32.2685 11.6348C32.2685 11.7784 32.2698 11.9167 32.27 12.0508C31.8041 14.4396 30.1633 15.7299 30.1633 15.7299C30.5157 14.1496 29.7958 12.9629 28.4992 11.9583C28.0215 11.5882 27.0785 10.8873 26.0234 10.1194C26.0234 10.1194 26.6345 9.52685 27.1764 8.33481C27.5604 7.49043 27.577 6.52412 26.6345 6.31103C25.0771 5.95871 23.793 7.08387 23.41 8.28507C23.1133 9.21561 23.2715 9.90612 23.8529 10.6234C23.8953 10.6758 23.9413 10.7294 23.9888 10.7833C23.6373 11.4499 23.1544 12.3473 22.7453 13.0433C21.61 14.9755 20.7524 16.5039 20.1043 16.5039C19.5861 16.5039 19.5931 14.9522 19.5931 13.4994C19.5931 12.2469 19.6871 10.3639 19.7622 8.41432C19.787 7.76956 19.4593 7.40226 18.91 7.06957C18.5762 6.86746 17.8638 6.47006 17.4512 6.47006C16.8336 6.47006 15.0519 6.55273 13.3684 11.3434C13.1563 11.9472 12.7395 13.0474 12.7395 13.0474L12.7753 7.28648C12.7753 7.15142 12.7022 7.02083 12.5348 6.9315C12.2511 6.77996 11.4934 6.47006 10.8197 6.47006C10.4987 6.47006 10.3385 6.61694 10.3385 6.90971L10.2797 15.9227C10.2797 16.6075 10.2979 17.4065 10.3667 17.7559C10.4353 18.1057 10.5463 18.3903 10.6839 18.5597C10.8213 18.7287 10.9802 18.8576 11.2423 18.9108C11.4861 18.9602 12.8215 19.1289 12.8909 18.6269C12.9741 18.0252 12.9773 17.3745 13.6785 14.9474C14.7701 11.1689 16.1934 9.32524 16.8625 8.67049C16.9795 8.55605 17.1131 8.54923 17.1066 8.73653C17.0781 9.56495 16.9776 11.635 16.91 13.3936C16.7287 18.0999 17.599 18.9722 18.8427 18.9722C19.7942 18.9722 21.1355 18.0421 22.5733 15.6878C23.4696 14.2207 24.34 12.7821 24.9653 11.7453C25.401 12.1421 25.89 12.5692 26.3787 13.0255C27.5143 14.0858 27.8872 15.0933 27.6398 16.0492C27.4506 16.7799 26.738 17.5329 25.4698 16.801C25.1002 16.5874 24.9424 16.4225 24.5708 16.1817C24.3711 16.0524 24.0662 16.0137 23.8834 16.1492C23.4086 16.5014 23.137 16.9494 22.982 17.504C22.8311 18.0436 23.3805 18.3289 23.95 18.5784C24.4404 18.7932 25.4943 18.9878 26.1665 19.0099C28.7854 19.0961 30.8834 17.766 32.3438 14.3349C32.6052 17.2981 33.7179 18.9748 35.6509 18.9748C36.9433 18.9748 38.2391 17.3315 38.8057 15.7148C38.9684 16.3738 39.2092 16.9469 39.5201 17.4315C41.0097 19.7532 43.8993 19.2535 45.3508 17.282C45.7996 16.6728 45.8679 16.4539 45.8679 16.4539C46.0796 18.3155 47.6035 18.9659 48.476 18.9659C49.4532 18.9659 50.4621 18.5114 51.1693 16.9453C51.2522 17.1152 51.3426 17.2775 51.4414 17.4314C52.9309 19.7531 55.8205 19.2534 57.272 17.2819C57.3405 17.1894 57.3999 17.1055 57.4518 17.0303L57.4944 18.253C57.4944 18.253 56.6663 19.0003 56.158 19.4587C53.9209 21.4778 52.2199 23.0097 52.0947 24.7936C51.9341 27.0683 53.8093 27.9136 55.228 28.0244C56.7346 28.142 58.0248 27.3233 58.8179 26.1775C59.5154 25.1689 59.9719 22.9982 59.9385 20.8544C59.9251 19.9959 59.9031 18.9043 59.8859 17.7342C60.6722 16.8359 61.558 15.7006 62.3737 14.3717C63.2627 12.9234 64.2153 10.9785 64.7032 9.46492C64.7032 9.46492 65.5309 9.47191 66.4142 9.41502C66.6968 9.39689 66.7779 9.4536 66.7257 9.65739C66.6626 9.90357 65.6097 13.8989 66.5706 16.5605C67.2284 18.3825 68.7112 18.9687 69.5903 18.9687C70.6194 18.9687 71.6039 18.2041 72.1314 17.0688C72.195 17.1954 72.2615 17.3179 72.334 17.4309C73.8235 19.7526 76.703 19.2499 78.1647 17.2814C78.4946 16.8373 78.6818 16.4533 78.6818 16.4533C78.9954 18.38 80.5184 18.9751 81.3908 18.9751C82.2995 18.9751 83.1619 18.6087 83.8616 16.98C83.8908 17.6971 83.9368 18.2835 84.0095 18.4683C84.0538 18.5814 84.3121 18.7233 84.4999 18.7919C85.3312 19.0951 86.179 18.9517 86.4927 18.8893C86.71 18.8461 86.8794 18.6746 86.9026 18.2317C86.9634 17.069 86.9261 15.1154 87.2844 13.6635C87.8858 11.2269 88.4469 10.2817 88.7131 9.81375C88.862 9.55158 89.0301 9.50833 89.0362 9.7858C89.0487 10.3472 89.0771 11.9959 89.3101 14.211C89.4812 15.8401 89.7098 16.803 89.8855 17.1077C90.3869 17.9792 91.0061 18.0205 91.5104 18.0205C91.8311 18.0205 92.5019 17.9333 92.4419 17.3787C92.4126 17.1084 92.4639 15.4378 93.0569 13.0372C93.4441 11.4696 94.0897 10.0531 94.3225 9.53527C94.4084 9.3443 94.4483 9.49484 94.447 9.52417C94.3979 10.6038 94.2879 14.135 94.735 16.0663C95.341 18.6826 97.0941 18.9753 97.7051 18.9753C99.0093 18.9753 100.076 17.9994 100.435 15.4313C100.522 14.8133 100.394 14.3361 100.01 14.3361" fill="white"/>
</svg>
