<svg width="100" height="33" viewBox="0 0 100 33" fill="none" xmlns="http://www.w3.org/2000/svg">
<path d="M0 0H21.5972V10.9028H10.7986L0 0ZM0 10.9028H10.7986L21.5972 21.8055H0V10.9028ZM0 21.8055H10.7986V32.7083L0 21.8055Z" fill="white"/>
<path d="M33.7831 8.60121H42.5131V11.4021H37.0873V15.2944H42.5131V18.0334H37.0873V23.0172H33.7831V8.60121ZM44.308 13.0906H47.4289V15.1707C47.592 14.4559 47.9254 13.9072 48.4284 13.5231C48.9442 13.1245 49.5168 12.926 50.1418 12.926C50.4684 12.926 50.7406 12.9539 50.9575 13.0083V15.9329C50.6462 15.895 50.333 15.8745 50.0193 15.871C49.1626 15.871 48.5173 16.1519 48.0816 16.7151C47.6473 17.2643 47.4289 18.0878 47.4289 19.1867V23.0172H44.3094V13.0906H44.308ZM55.8842 23.285C54.9327 23.285 54.1026 23.0581 53.3956 22.6051C52.702 22.1522 52.1506 21.5092 51.8048 20.7515C51.4377 19.9559 51.2529 19.0555 51.2529 18.0539C51.2529 17.0652 51.4446 16.1723 51.825 15.3767C52.1817 14.608 52.7479 13.9581 53.4569 13.5026C54.1767 13.0497 54.9998 12.8227 55.9252 12.8227C56.6184 12.8227 57.2379 12.9744 57.7814 13.2762C58.3248 13.579 58.7329 13.991 59.0052 14.5118V13.0906H62.1054V23.0172H59.0052V21.6165C58.7329 22.1108 58.3115 22.5154 57.7404 22.8316C57.1692 23.1374 56.5309 23.293 55.8842 23.285ZM56.7819 20.6692C57.5294 20.6692 58.1075 20.4223 58.5156 19.928C58.9236 19.4336 59.1277 18.8086 59.1277 18.0539C59.1277 17.3126 58.9236 16.6946 58.5156 16.2003C58.1075 15.7059 57.5294 15.459 56.7819 15.459C56.0739 15.459 55.5038 15.699 55.0685 16.1798C54.6471 16.6607 54.4361 17.2847 54.4361 18.0539C54.4361 18.8231 54.6471 19.4541 55.0685 19.9484C55.5038 20.4293 56.0749 20.6692 56.7819 20.6692ZM64.2881 13.0906H67.4091V14.5322C67.6274 14.0234 67.9802 13.6114 68.4693 13.2966C68.9733 12.9819 69.5577 12.8227 70.2237 12.8227C71.7741 12.8227 72.8012 13.4333 73.3037 14.6559C73.5803 14.1017 74.0131 13.6433 74.5482 13.338C75.1203 12.9903 75.7774 12.8123 76.4449 12.8227C78.7704 12.8227 79.9329 14.1676 79.9329 16.8592V23.0172H76.7917V17.4359C76.7917 16.7639 76.6692 16.2696 76.4246 15.9534C76.1796 15.6381 75.8125 15.4795 75.3229 15.4795C74.7927 15.4795 74.3847 15.665 74.0991 16.0357C73.8135 16.3928 73.6707 17.0168 73.6707 17.9097V23.0172H70.5295V17.4154C70.5295 16.743 70.4075 16.2551 70.1624 15.9534C69.9322 15.6381 69.5711 15.4795 69.0824 15.4795C68.538 15.4795 68.123 15.665 67.8374 16.0357C67.5518 16.3928 67.4091 17.0168 67.4091 17.9097V23.0172H64.2891V13.0906H64.2881ZM91.6569 17.5391C91.6569 17.9641 91.6292 18.4245 91.5739 18.9188H84.3137C84.3414 19.5643 84.5583 20.0577 84.9664 20.4018C85.3745 20.7445 85.9263 20.9166 86.6185 20.9166C87.5844 20.9166 88.1965 20.6208 88.4544 20.0307H91.5141C91.3639 21.0059 90.8338 21.7946 89.9227 22.3991C89.0255 22.9892 87.9238 23.285 86.6185 23.285C84.9328 23.285 83.6067 22.8246 82.6408 21.9048C81.6893 20.9845 81.213 19.7015 81.213 18.0539C81.213 16.9829 81.4304 16.0561 81.8657 15.2735C82.2861 14.4918 82.9343 13.8593 83.7218 13.4612C84.5247 13.0362 85.456 12.8227 86.5177 12.8227C87.5231 12.8227 88.4134 13.0218 89.1886 13.4203C89.9771 13.8189 90.5828 14.3746 91.0037 15.0884C91.4395 15.8032 91.6569 16.6198 91.6569 17.5391ZM88.5754 16.9625C88.5621 16.3035 88.3788 15.8017 88.0246 15.459C87.6718 15.1163 87.161 14.9442 86.495 14.9442C85.829 14.9442 85.2989 15.1293 84.9041 15.5004C84.5237 15.8576 84.3266 16.3444 84.3122 16.9625H88.5754ZM93.0328 13.0906H96.1538V15.1707C96.3168 14.4559 96.6503 13.9072 97.1533 13.5231C97.6414 13.135 98.2451 12.9245 98.8667 12.926C99.1927 12.926 99.4654 12.9539 99.6823 13.0083V15.9329C99.3711 15.895 99.0578 15.8745 98.7441 15.871C97.8874 15.871 97.2422 16.1519 96.8064 16.7151C96.3707 17.2643 96.1538 18.0878 96.1538 19.1867V23.0172H93.0328V13.0906Z" fill="white"/>
</svg>
