<svg width="103" height="22" viewBox="0 0 103 22" fill="none" xmlns="http://www.w3.org/2000/svg">
<path d="M42.4272 4.3611V17.4444H40.1607V7.17764H40.1305L36.0812 17.4444H34.5703L30.4303 7.17764H30.4001V17.4444H28.315V4.3611H31.5786L35.3257 14.0524H35.3862L39.3448 4.3611H42.4272ZM44.3007 5.36052C44.3007 4.99709 44.4216 4.69424 44.6936 4.45195C44.9655 4.20967 45.2677 4.08853 45.6304 4.08853C46.0232 4.08853 46.3556 4.20967 46.5974 4.45195C46.8391 4.69424 46.9902 4.99709 46.9902 5.36052C46.9902 5.72394 46.8693 6.0268 46.5974 6.26908C46.3254 6.51136 46.0232 6.63251 45.6304 6.63251C45.2375 6.63251 44.9353 6.51136 44.6936 6.26908C44.4518 5.99651 44.3007 5.69366 44.3007 5.36052ZM46.7485 8.05592V17.4444H44.5425V8.05592H46.7485ZM53.4268 15.8393C53.7592 15.8393 54.1218 15.7787 54.5147 15.597C54.9075 15.4456 55.2702 15.2336 55.6026 14.9913V17.0507C55.2399 17.2627 54.8471 17.4141 54.3938 17.505C53.9405 17.5958 53.457 17.6564 52.9131 17.6564C51.523 17.6564 50.4049 17.2324 49.5588 16.3541C48.6825 15.4759 48.2594 14.3553 48.2594 13.0227C48.2594 11.5085 48.7127 10.2668 49.589 9.29763C50.4654 8.32849 51.7043 7.84392 53.3362 7.84392C53.7592 7.84392 54.1823 7.9045 54.5751 7.99535C54.9982 8.08621 55.3306 8.23764 55.5723 8.35878V10.4787C55.2399 10.2364 54.8773 10.0245 54.5449 9.90334C54.1823 9.78219 53.8196 9.69134 53.457 9.69134C52.5807 9.69134 51.8856 9.96388 51.3417 10.5393C50.7978 11.1147 50.556 11.8719 50.556 12.841C50.556 13.7799 50.828 14.537 51.3417 15.0519C51.8554 15.5667 52.5505 15.8393 53.4268 15.8393ZM61.8578 7.9045C62.0392 7.9045 62.1903 7.9045 62.3414 7.93478C62.4924 7.96507 62.6133 7.99535 62.704 8.02564V10.2668C62.5831 10.1759 62.432 10.085 62.1903 10.0244C61.9485 9.96388 61.7068 9.90334 61.3744 9.90334C60.8304 9.90334 60.3771 10.1456 60.0145 10.5999C59.6519 11.0542 59.4403 11.7507 59.4403 12.7199V17.4444H57.2344V8.05592H59.4403V9.53991H59.4706C59.6821 9.02506 59.9843 8.63135 60.3771 8.32849C60.8002 8.05592 61.2837 7.9045 61.8578 7.9045ZM62.8249 12.9016C62.8249 11.357 63.2781 10.1153 64.1243 9.20677C65.0006 8.29821 66.2094 7.84392 67.7505 7.84392C69.201 7.84392 70.3493 8.26792 71.1652 9.1462C71.9812 10.0245 72.4042 11.2056 72.4042 12.6896C72.4042 14.2039 71.9509 15.4153 71.1048 16.3239C70.2285 17.2324 69.0499 17.6867 67.539 17.6867C66.0885 17.6867 64.9402 17.2627 64.094 16.4147C63.2479 15.5364 62.8249 14.3553 62.8249 12.9016ZM65.1215 12.8107C65.1215 13.7798 65.333 14.537 65.7863 15.0519C66.2396 15.5667 66.8742 15.8393 67.6901 15.8393C68.4758 15.8393 69.1104 15.597 69.5334 15.0519C69.9565 14.537 70.168 13.7798 70.168 12.7501C70.168 11.7507 69.9565 10.9936 69.5334 10.4485C69.1104 9.93362 68.4758 9.66105 67.7203 9.66105C66.9044 9.66105 66.3 9.93359 65.8467 10.4787C65.333 11.0542 65.1215 11.8113 65.1215 12.8107ZM75.6981 10.5393C75.6981 10.8422 75.7887 11.1147 76.0003 11.2964C76.2118 11.4782 76.6348 11.6902 77.3299 11.9627C78.2062 12.3262 78.8408 12.7199 79.1732 13.1439C79.5359 13.5982 79.7172 14.113 79.7172 14.749C79.7172 15.6273 79.3848 16.3239 78.6897 16.869C78.0249 17.4141 77.0881 17.6564 75.9398 17.6564C75.547 17.6564 75.1239 17.5958 74.6404 17.505C74.1569 17.4141 73.7641 17.293 73.4316 17.1415V14.961C73.8245 15.2336 74.2778 15.4758 74.7311 15.6273C75.1843 15.7787 75.6074 15.8696 76.0003 15.8696C76.4837 15.8696 76.8766 15.809 77.0881 15.6576C77.3299 15.5061 77.4508 15.2941 77.4508 14.961C77.4508 14.6582 77.3299 14.4158 77.0881 14.1736C76.8464 13.9616 76.3629 13.7193 75.6981 13.4467C74.8822 13.1136 74.308 12.7199 73.9756 12.2959C73.6432 11.8719 73.4619 11.3268 73.4619 10.6605C73.4619 9.81248 73.7943 9.11588 74.4591 8.57074C75.1239 8.02561 76.0003 7.75307 77.0579 7.75307C77.3903 7.75307 77.7529 7.78335 78.1458 7.87421C78.5386 7.96507 78.9013 8.05592 79.1732 8.14678V10.297C78.871 10.1153 78.5386 9.93359 78.1458 9.78216C77.7529 9.63074 77.3601 9.5702 76.9975 9.5702C76.5744 9.5702 76.242 9.66105 76.0305 9.81248C75.8189 10.0245 75.6981 10.2364 75.6981 10.5393ZM80.6539 12.9016C80.6539 11.357 81.1072 10.1153 81.9534 9.20677C82.8297 8.29821 84.0385 7.84392 85.5796 7.84392C87.0301 7.84392 88.1784 8.26792 88.9943 9.1462C89.8102 10.0245 90.2333 11.2056 90.2333 12.6896C90.2333 14.2039 89.78 15.4153 88.9339 16.3239C88.0575 17.2324 86.879 17.6867 85.3681 17.6867C83.9176 17.6867 82.7693 17.2627 81.9231 16.4147C81.1072 15.5364 80.6539 14.3553 80.6539 12.9016ZM82.9506 12.8107C82.9506 13.7798 83.1621 14.537 83.6154 15.0519C84.0687 15.5667 84.7033 15.8393 85.5192 15.8393C86.3049 15.8393 86.9395 15.597 87.3625 15.0519C87.7856 14.537 87.9971 13.7798 87.9971 12.7501C87.9971 11.7507 87.7856 10.9936 87.3625 10.4485C86.9395 9.93362 86.3049 9.66105 85.5494 9.66105C84.7335 9.66105 84.1291 9.93359 83.6758 10.4787C83.1923 11.0542 82.9506 11.8113 82.9506 12.8107ZM97.5765 9.87302H94.2826V17.4444H92.0464V9.87302H90.4751V8.05592H92.0464V6.75365C92.0464 5.78451 92.3788 4.9668 93.0134 4.33081C93.648 3.69482 94.4639 3.39196 95.4612 3.39196C95.7331 3.39196 95.9749 3.42225 96.1864 3.42225C96.3979 3.42225 96.5793 3.48282 96.7304 3.54339V5.45137C96.6699 5.42109 96.5188 5.36052 96.3375 5.29995C96.1562 5.23937 95.9447 5.20909 95.7029 5.20909C95.2496 5.20909 94.887 5.36052 94.6452 5.63309C94.4035 5.90565 94.2826 6.35994 94.2826 6.90507V8.02564H97.5765V5.90565L99.7824 5.23937V8.02564H102.019V9.84276H99.7824V14.2342C99.7824 14.8096 99.9033 15.2033 100.085 15.4456C100.296 15.6879 100.629 15.809 101.082 15.809C101.203 15.809 101.354 15.7787 101.535 15.7181C101.716 15.6576 101.868 15.597 101.988 15.5061V17.3233C101.837 17.4141 101.626 17.4747 101.293 17.5353C100.961 17.5958 100.659 17.6261 100.326 17.6261C99.3896 17.6261 98.6946 17.3838 98.2413 16.8992C97.788 16.4147 97.5462 15.6576 97.5462 14.6582L97.5765 9.87302Z" fill="white"/>
<path d="M10.3348 0H0V10.3576H10.3348V0Z" fill="white"/>
<path d="M21.7575 0H11.4226V10.3576H21.7575V0Z" fill="white"/>
<path d="M10.3348 11.4479H0V21.8055H10.3348V11.4479Z" fill="white"/>
<path d="M21.7575 11.4479H11.4226V21.8055H21.7575V11.4479Z" fill="white"/>
</svg>
