<svg width="112" height="25" viewBox="0 0 112 25" fill="none" xmlns="http://www.w3.org/2000/svg">
<path d="M60.4485 8.02438H62.9337V14.9376C62.9337 18.4467 60.9998 20.4594 57.6307 20.4594C54.2966 20.4594 52.3802 18.4817 52.3802 15.0338V8.03313H54.8654V14.9551C54.8654 17.0028 55.8718 18.0966 57.6657 18.0966C59.4596 18.0966 60.4485 17.029 60.4485 15.0426V8.02438ZM46.4471 12.9599H40.829V8.02438H38.3438V20.2756H40.829V15.2964H46.4383V20.2756H48.9236V8.02438H46.4383V12.9599H46.4471ZM108.683 8.02438V20.2581H111.134V8.02438H108.683ZM98.9261 14.9988H103.45V12.7673H98.9261V10.2558H105.489V8.03313H96.4758V20.2668H105.725V18.0354H98.9261V14.9988ZM89.1776 16.4427L86.3948 8.01562H84.3646L81.5818 16.4427L78.8778 8.02438H76.235L80.5055 20.2668H82.5619L85.3447 12.2248L88.1275 20.2668H90.2014L94.4631 8.02438H91.8816L89.1776 16.4427ZM71.8158 8.09438L77.1626 20.2668H74.5549L73.4523 17.7203H67.8429L67.7642 17.8954L66.7316 20.2668H64.1938L69.5931 8.02438H71.7633L71.8158 8.09438ZM72.4109 15.2176L70.6432 11.1134L68.8843 15.2176L68.7618 15.4976H72.5247L72.4109 15.2176Z" fill="white"/>
<path d="M13.8793 18.9719C13.9143 18.9456 13.923 18.8931 13.9055 18.8494C11.4925 13.663 8.48227 8.77612 4.93587 4.28793C4.93587 4.28793 2.11809 6.9657 2.31936 9.65221C2.3665 10.2716 2.5353 10.8756 2.81609 11.4297C3.09688 11.9837 3.48416 12.477 3.95577 12.8813C6.41477 15.279 12.3654 18.3068 13.748 18.9981C13.7918 19.0156 13.8443 19.0069 13.8793 18.9719ZM12.9604 21.0196C12.9429 20.9671 12.8904 20.9321 12.8292 20.9321L2.92317 21.2734C3.99952 23.1898 5.81096 24.6775 7.69239 24.2224C8.99627 23.8986 11.9366 21.8422 12.9079 21.1421C12.9867 21.0809 12.9604 21.0283 12.9604 21.0196ZM13.1092 20.1358C13.1617 20.057 13.0742 19.987 13.0742 19.987C8.725 17.0467 0.289154 12.5313 0.289154 12.5313C0.00954444 13.3883 -0.0686745 14.2982 0.0605758 15.1904C0.189826 16.0826 0.523064 16.9329 1.03439 17.6754C1.54572 18.4178 2.22136 19.0323 3.00881 19.4712C3.79625 19.9101 4.67429 20.1614 5.57468 20.2058C5.72345 20.232 11.464 20.2058 13.0042 20.197C13.0479 20.1883 13.0829 20.1708 13.1092 20.1358ZM13.7655 0.00875087C13.3367 0.0437544 12.1728 0.315031 12.1728 0.315031C9.54758 0.988849 8.92627 3.37784 8.92627 3.37784C8.44497 4.87424 8.93502 6.52815 8.93502 6.52815C9.81011 10.4135 14.1155 16.8104 15.0431 18.1493C15.1044 18.2193 15.1569 18.1931 15.1569 18.1931C15.2094 18.1756 15.2531 18.1318 15.2531 18.0706C16.6883 3.78913 13.7655 0.00875087 13.7655 0.00875087ZM17.0471 18.1756C17.0996 18.1931 17.1608 18.1756 17.1871 18.1231C18.1409 16.7492 22.4201 10.3873 23.2952 6.5194C23.2952 6.5194 23.7677 4.64671 23.3127 3.36909C23.3127 3.36909 22.6651 0.945094 20.0399 0.306281C20.0399 0.306281 19.2873 0.113761 18.4822 0C18.4822 0 15.5419 3.78038 16.9771 18.0618C16.9683 18.1143 17.0033 18.1581 17.0471 18.1756ZM19.3923 20.9408C19.369 20.9455 19.3469 20.955 19.3273 20.9685C19.3078 20.982 19.2912 20.9994 19.2786 21.0196C19.2698 21.0721 19.2786 21.1159 19.3136 21.1509C20.2587 21.8334 23.1377 23.8461 24.5203 24.2312C24.5203 24.2312 27.0843 25.1063 29.3071 21.2821L19.3923 20.9408ZM31.9498 12.5137C31.9498 12.5137 23.5315 17.038 19.1735 19.9782C19.1298 20.0132 19.1035 20.0658 19.121 20.1183C19.121 20.1183 19.1648 20.197 19.226 20.197C20.7837 20.197 26.6818 20.2058 26.8393 20.1795C27.4256 20.1358 28.0032 20.0045 28.5457 19.7857C28.5457 19.7857 30.6459 19.1207 31.731 16.7317C31.731 16.7317 32.7024 14.789 31.9498 12.5137ZM18.3772 18.9719C18.4122 18.9981 18.4647 19.0069 18.5085 18.9806C19.9261 18.2718 25.833 15.2703 28.2745 12.8813C28.2745 12.8813 29.8234 11.6387 29.9021 9.63471C30.0771 6.86068 27.2856 4.28793 27.2856 4.28793C27.2856 4.28793 22.1226 10.5448 18.3335 18.8144C18.3274 18.8422 18.3282 18.8711 18.3358 18.8986C18.3434 18.926 18.3576 18.9512 18.3772 18.9719Z" fill="white"/>
</svg>
