<svg width="142" height="34" viewBox="0 0 142 34" fill="none" xmlns="http://www.w3.org/2000/svg">
<path d="M52.192 26.26C50.944 26.26 49.7653 26.0173 48.656 25.532C47.5467 25.0467 46.576 24.3793 45.744 23.53C44.912 22.6633 44.2533 21.6667 43.768 20.54C43.3 19.396 43.066 18.174 43.066 16.874C43.066 15.574 43.3 14.3607 43.768 13.234C44.2533 12.1073 44.912 11.1193 45.744 10.27C46.5933 9.40333 47.5813 8.736 48.708 8.268C49.852 7.78267 51.0827 7.54 52.4 7.54C53.8387 7.54 55.1733 7.81733 56.404 8.372C57.6347 8.92667 58.666 9.71533 59.498 10.738L57.47 12.766C56.9327 12.0033 56.2133 11.4227 55.312 11.024C54.4107 10.608 53.44 10.4 52.4 10.4C51.152 10.4 50.0513 10.6773 49.098 11.232C48.162 11.7693 47.434 12.5233 46.914 13.494C46.394 14.4647 46.134 15.5913 46.134 16.874C46.134 18.1567 46.394 19.292 46.914 20.28C47.4513 21.2507 48.1707 22.0133 49.072 22.568C49.9733 23.1227 50.996 23.4 52.14 23.4C53.3533 23.4 54.3933 23.1833 55.26 22.75C56.144 22.2993 56.82 21.6407 57.288 20.774C57.756 19.89 57.99 18.8067 57.99 17.524L59.862 18.876H52.088V16.146H61.084V16.562C61.084 18.7287 60.694 20.5313 59.914 21.97C59.1513 23.4087 58.1027 24.4833 56.768 25.194C55.4333 25.9047 53.908 26.26 52.192 26.26ZM69.468 26.26C68.22 26.26 67.0933 25.9827 66.088 25.428C65.1 24.856 64.3113 24.076 63.722 23.088C63.15 22.1 62.864 20.9907 62.864 19.76C62.864 18.5293 63.15 17.4287 63.722 16.458C64.294 15.47 65.0653 14.69 66.036 14.118C67.024 13.546 68.116 13.26 69.312 13.26C70.4733 13.26 71.496 13.5287 72.38 14.066C73.2813 14.6033 73.9833 15.34 74.486 16.276C75.006 17.212 75.266 18.278 75.266 19.474C75.266 19.682 75.2487 19.8987 75.214 20.124C75.1967 20.332 75.162 20.566 75.11 20.826H64.866V18.486H73.628L72.562 19.422C72.5273 18.6593 72.38 18.018 72.12 17.498C71.86 16.978 71.4873 16.5793 71.002 16.302C70.534 16.0247 69.9533 15.886 69.26 15.886C68.532 15.886 67.8993 16.042 67.362 16.354C66.8247 16.666 66.4087 17.108 66.114 17.68C65.8193 18.2347 65.672 18.902 65.672 19.682C65.672 20.462 65.828 21.1467 66.14 21.736C66.452 22.3253 66.894 22.7847 67.466 23.114C68.038 23.426 68.6967 23.582 69.442 23.582C70.0833 23.582 70.6727 23.4693 71.21 23.244C71.7647 23.0187 72.2327 22.6893 72.614 22.256L74.434 24.102C73.8273 24.8127 73.0907 25.35 72.224 25.714C71.3573 26.078 70.4387 26.26 69.468 26.26ZM86.1127 26V18.798C86.1127 17.966 85.844 17.2813 85.3067 16.744C84.7867 16.2067 84.1107 15.938 83.2787 15.938C82.724 15.938 82.23 16.0593 81.7967 16.302C81.3633 16.5447 81.0253 16.8827 80.7827 17.316C80.54 17.7493 80.4187 18.2433 80.4187 18.798L79.3007 18.174C79.3007 17.2207 79.5087 16.38 79.9247 15.652C80.3407 14.9067 80.9127 14.326 81.6407 13.91C82.386 13.4767 83.218 13.26 84.1367 13.26C85.0727 13.26 85.9047 13.5027 86.6327 13.988C87.3607 14.456 87.9327 15.0713 88.3487 15.834C88.7647 16.5793 88.9727 17.3593 88.9727 18.174V26H86.1127ZM77.5587 26V13.52H80.4187V26H77.5587ZM97.677 26.26C96.429 26.26 95.3023 25.9827 94.297 25.428C93.309 24.856 92.5203 24.076 91.931 23.088C91.359 22.1 91.073 20.9907 91.073 19.76C91.073 18.5293 91.359 17.4287 91.931 16.458C92.503 15.47 93.2743 14.69 94.245 14.118C95.233 13.546 96.325 13.26 97.521 13.26C98.6823 13.26 99.705 13.5287 100.589 14.066C101.49 14.6033 102.192 15.34 102.695 16.276C103.215 17.212 103.475 18.278 103.475 19.474C103.475 19.682 103.458 19.8987 103.423 20.124C103.406 20.332 103.371 20.566 103.319 20.826H93.075V18.486H101.837L100.771 19.422C100.736 18.6593 100.589 18.018 100.329 17.498C100.069 16.978 99.6963 16.5793 99.211 16.302C98.743 16.0247 98.1623 15.886 97.469 15.886C96.741 15.886 96.1083 16.042 95.571 16.354C95.0336 16.666 94.6176 17.108 94.323 17.68C94.0283 18.2347 93.881 18.902 93.881 19.682C93.881 20.462 94.037 21.1467 94.349 21.736C94.661 22.3253 95.103 22.7847 95.675 23.114C96.247 23.426 96.9056 23.582 97.651 23.582C98.2923 23.582 98.8816 23.4693 99.419 23.244C99.9736 23.0187 100.442 22.6893 100.823 22.256L102.643 24.102C102.036 24.8127 101.3 25.35 100.433 25.714C99.5663 26.078 98.6476 26.26 97.677 26.26ZM109.85 26.26C109.156 26.26 108.489 26.1733 107.848 26C107.206 25.8093 106.617 25.5493 106.08 25.22C105.542 24.8733 105.074 24.4573 104.676 23.972L106.496 22.152C106.929 22.6547 107.423 23.036 107.978 23.296C108.55 23.5387 109.191 23.66 109.902 23.66C110.543 23.66 111.028 23.5647 111.358 23.374C111.687 23.1833 111.852 22.906 111.852 22.542C111.852 22.1607 111.696 21.866 111.384 21.658C111.072 21.45 110.664 21.2767 110.162 21.138C109.676 20.982 109.156 20.826 108.602 20.67C108.064 20.514 107.544 20.306 107.042 20.046C106.556 19.7687 106.158 19.396 105.846 18.928C105.534 18.46 105.378 17.8533 105.378 17.108C105.378 16.3107 105.56 15.626 105.924 15.054C106.305 14.482 106.834 14.04 107.51 13.728C108.203 13.416 109.026 13.26 109.98 13.26C110.985 13.26 111.869 13.442 112.632 13.806C113.412 14.1527 114.062 14.6813 114.582 15.392L112.762 17.212C112.398 16.7613 111.982 16.4233 111.514 16.198C111.046 15.9727 110.508 15.86 109.902 15.86C109.33 15.86 108.888 15.9467 108.576 16.12C108.264 16.2933 108.108 16.5447 108.108 16.874C108.108 17.2207 108.264 17.4893 108.576 17.68C108.888 17.8707 109.286 18.0353 109.772 18.174C110.274 18.3127 110.794 18.4687 111.332 18.642C111.886 18.798 112.406 19.0233 112.892 19.318C113.394 19.5953 113.802 19.9767 114.114 20.462C114.426 20.93 114.582 21.5453 114.582 22.308C114.582 23.5213 114.157 24.4833 113.308 25.194C112.458 25.9047 111.306 26.26 109.85 26.26ZM116.966 26V13.52H119.826V26H116.966ZM118.396 11.232C117.91 11.232 117.503 11.0673 117.174 10.738C116.862 10.4087 116.706 10.0013 116.706 9.516C116.706 9.03067 116.862 8.62333 117.174 8.294C117.503 7.96467 117.91 7.8 118.396 7.8C118.898 7.8 119.306 7.96467 119.618 8.294C119.93 8.62333 120.086 9.03067 120.086 9.516C120.086 10.0013 119.93 10.4087 119.618 10.738C119.306 11.0673 118.898 11.232 118.396 11.232ZM127.115 26.26C126.422 26.26 125.755 26.1733 125.113 26C124.472 25.8093 123.883 25.5493 123.345 25.22C122.808 24.8733 122.34 24.4573 121.941 23.972L123.761 22.152C124.195 22.6547 124.689 23.036 125.243 23.296C125.815 23.5387 126.457 23.66 127.167 23.66C127.809 23.66 128.294 23.5647 128.623 23.374C128.953 23.1833 129.117 22.906 129.117 22.542C129.117 22.1607 128.961 21.866 128.649 21.658C128.337 21.45 127.93 21.2767 127.427 21.138C126.942 20.982 126.422 20.826 125.867 20.67C125.33 20.514 124.81 20.306 124.307 20.046C123.822 19.7687 123.423 19.396 123.111 18.928C122.799 18.46 122.643 17.8533 122.643 17.108C122.643 16.3107 122.825 15.626 123.189 15.054C123.571 14.482 124.099 14.04 124.775 13.728C125.469 13.416 126.292 13.26 127.245 13.26C128.251 13.26 129.135 13.442 129.897 13.806C130.677 14.1527 131.327 14.6813 131.847 15.392L130.027 17.212C129.663 16.7613 129.247 16.4233 128.779 16.198C128.311 15.9727 127.774 15.86 127.167 15.86C126.595 15.86 126.153 15.9467 125.841 16.12C125.529 16.2933 125.373 16.5447 125.373 16.874C125.373 17.2207 125.529 17.4893 125.841 17.68C126.153 17.8707 126.552 18.0353 127.037 18.174C127.54 18.3127 128.06 18.4687 128.597 18.642C129.152 18.798 129.672 19.0233 130.157 19.318C130.66 19.5953 131.067 19.9767 131.379 20.462C131.691 20.93 131.847 21.5453 131.847 22.308C131.847 23.5213 131.423 24.4833 130.573 25.194C129.724 25.9047 128.571 26.26 127.115 26.26Z" fill="white"/>
<mask id="mask0_8209_999" style="mask-type:luminance" maskUnits="userSpaceOnUse" x="0" y="0" width="34" height="34">
<path d="M25.5 0H8.5C3.80558 0 0 3.80558 0 8.5V25.5C0 30.1944 3.80558 34 8.5 34H25.5C30.1944 34 34 30.1944 34 25.5V8.5C34 3.80558 30.1944 0 25.5 0Z" fill="white"/>
</mask>
<g mask="url(#mask0_8209_999)">
<path d="M25.5 0H8.5C3.80558 0 0 3.80558 0 8.5V25.5C0 30.1944 3.80558 34 8.5 34H25.5C30.1944 34 34 30.1944 34 25.5V8.5C34 3.80558 30.1944 0 25.5 0Z" fill="#F54900"/>
<path d="M0 0H34V34H0V0Z" fill="url(#paint0_linear_8209_999)"/>
<path d="M25.5026 0.708008H8.5026C4.19939 0.708008 0.710938 4.19646 0.710938 8.49967V25.4997C0.710938 29.8029 4.19939 33.2913 8.5026 33.2913H25.5026C29.8058 33.2913 33.2943 29.8029 33.2943 25.4997V8.49967C33.2943 4.19646 29.8058 0.708008 25.5026 0.708008Z" stroke="white" stroke-opacity="0.1"/>
<path d="M20.3223 14.5488C20.3223 14.0384 20.222 13.5462 20.0215 13.0723C19.8301 12.5892 19.5658 12.1654 19.2285 11.8008C18.8913 11.4271 18.4948 11.1309 18.0391 10.9121C17.5924 10.6842 17.1139 10.5703 16.6035 10.5703C16.0931 10.5703 15.61 10.6569 15.1543 10.8301C14.7077 11.0033 14.3158 11.2585 13.9785 11.5957C13.6504 11.9329 13.3906 12.3522 13.1992 12.8535C13.0078 13.3457 12.9121 13.9108 12.9121 14.5488C12.9121 15.1595 13.0078 15.7109 13.1992 16.2031C13.3906 16.6862 13.6504 17.1009 13.9785 17.4473C14.3158 17.7936 14.7077 18.0625 15.1543 18.2539C15.61 18.4362 16.0931 18.5273 16.6035 18.5273C17.1139 18.5273 17.5924 18.418 18.0391 18.1992C18.4948 17.9714 18.8913 17.6751 19.2285 17.3105C19.5658 16.9368 19.8301 16.513 20.0215 16.0391C20.222 15.556 20.3223 15.0592 20.3223 14.5488ZM24.082 20.1543C24.082 21.1842 23.8861 22.1504 23.4941 23.0527C23.1022 23.9551 22.5645 24.7435 21.8809 25.418C21.2064 26.0924 20.4134 26.6257 19.502 27.0176C18.5996 27.4095 17.6335 27.6055 16.6035 27.6055L14.7305 27.5781V23.8457L16.5762 23.873C17.1595 23.873 17.6562 23.7956 18.0664 23.6406C18.4766 23.4948 18.8229 23.2897 19.1055 23.0254C19.388 22.7702 19.6113 22.474 19.7754 22.1367C19.9486 21.7995 20.0853 21.444 20.1855 21.0703C20.0397 21.3073 19.8301 21.5033 19.5566 21.6582C19.2832 21.804 18.9779 21.9225 18.6406 22.0137C18.3125 22.1139 17.9661 22.1823 17.6016 22.2188C17.2461 22.2552 16.9134 22.2734 16.6035 22.2734C15.5736 22.2734 14.6029 22.0957 13.6914 21.7402C12.7891 21.3848 11.9961 20.8789 11.3125 20.2227C10.638 19.5573 10.1048 18.7461 9.71289 17.7891C9.32096 16.832 9.125 15.752 9.125 14.5488C9.125 13.446 9.32096 12.4206 9.71289 11.4727C10.1048 10.5247 10.638 9.70443 11.3125 9.01172C11.9961 8.31901 12.7891 7.77669 13.6914 7.38477C14.6029 6.99284 15.5736 6.79688 16.6035 6.79688C17.0775 6.79688 17.5469 6.85612 18.0117 6.97461C18.4766 7.0931 18.9277 7.25716 19.3652 7.4668C19.8027 7.67643 20.2174 7.92253 20.6094 8.20508C21.0104 8.48763 21.3841 8.79297 21.7305 9.12109L23.1797 7.38477H24.082V20.1543Z" fill="#FFEDD4"/>
</g>
<defs>
<linearGradient id="paint0_linear_8209_999" x1="17" y1="6.96629e-07" x2="18.4167" y2="34" gradientUnits="userSpaceOnUse">
<stop stop-color="white" stop-opacity="0"/>
<stop offset="1" stop-color="white" stop-opacity="0.12"/>
</linearGradient>
</defs>
</svg>
